<?xml version="1.0" encoding="UTF-8"?> <svg xmlns="http://www.w3.org/2000/svg" id="Layer_2" data-name="Layer 2" viewBox="0 0 66.46 20.11"> <defs> <style> .cls-1 { fill: #fff; } </style> </defs> <g id="Layer_1-2" data-name="Layer 1"> <g> <g> <path class="cls-1" d="m.24,12.78V0l7.81,7.52c.21.21.43.44.65.68s.45.51.69.81V.49h1.85v12.78L3.26,5.61c-.21-.21-.42-.43-.62-.66s-.39-.47-.57-.72v8.55H.24Z"></path> <path class="cls-1" d="m15.77,12.78V.49h6.86v1.7h-4.86v3.08h4.86v1.76h-4.86v3.97h4.86v1.79h-6.86Z"></path> <path class="cls-1" d="m28.52,7.28v5.5h-1.87V.49h2.79c.82,0,1.45.05,1.9.16s.84.28,1.15.53c.38.3.67.68.88,1.15s.31.99.31,1.55c0,.99-.24,1.76-.71,2.31s-1.18.89-2.11,1l4.23,5.59h-2.26l-4.09-5.5h-.23Zm.13-1.55h.36c1.06,0,1.76-.12,2.11-.37s.52-.68.52-1.31c0-.68-.19-1.15-.56-1.43s-1.06-.42-2.07-.42h-.36v3.53Z"></path> <path class="cls-1" d="m50.61,6.66c0,.87-.16,1.7-.49,2.48s-.8,1.47-1.43,2.08c-.63.61-1.35,1.08-2.14,1.4s-1.63.49-2.5.49-1.73-.16-2.53-.49-1.51-.79-2.13-1.4c-.63-.61-1.1-1.3-1.43-2.07s-.49-1.6-.49-2.49.16-1.71.49-2.49.8-1.48,1.43-2.09c.63-.61,1.34-1.08,2.13-1.39s1.64-.48,2.53-.48,1.72.16,2.52.48,1.5.78,2.13,1.39c.63.62,1.1,1.32,1.43,2.1s.49,1.61.49,2.47Zm-2.08,0c0-.62-.11-1.21-.34-1.77s-.55-1.06-.98-1.5c-.41-.43-.89-.76-1.44-1s-1.12-.35-1.73-.35-1.18.11-1.73.34-1.03.56-1.46,1c-.43.43-.75.93-.97,1.49s-.34,1.15-.34,1.78.11,1.21.34,1.76.55,1.05.97,1.49.91.77,1.45,1,1.12.34,1.73.34,1.17-.11,1.71-.34,1.03-.56,1.46-1c.43-.44.75-.93.98-1.49s.34-1.14.34-1.76Z"></path> <path class="cls-1" d="m54.62,12.78V.49h2v10.51h4.47v1.79h-6.47Z"></path> <path class="cls-1" d="m64.46,12.78V.49h2v12.3h-2Z"></path> </g> <g> <path class="cls-1" d="m2.07,18.86c0,.25-.04.46-.13.63-.09.18-.21.31-.37.41s-.33.14-.53.14-.38-.05-.53-.14-.28-.23-.37-.41-.13-.39-.13-.63.04-.46.13-.63c.09-.18.21-.31.37-.41s.33-.14.53-.14.38.05.53.14.28.23.37.41c.09.18.13.39.13.63Zm-.34,0c0-.19-.03-.35-.09-.47-.06-.13-.14-.23-.25-.29-.1-.07-.22-.1-.35-.1s-.25.03-.36.1-.19.16-.25.29c-.06.13-.09.29-.09.47s.03.35.09.47c.06.13.14.23.25.29.1.07.22.1.36.1s.25-.03.35-.1c.1-.07.19-.16.25-.29.06-.13.09-.29.09-.47Z"></path> <path class="cls-1" d="m2.98,20.01v-2.3h.35v1h1.15v-1h.35v2.3h-.35v-1h-1.15v1h-.35Z"></path> <path class="cls-1" d="m5.63,20.01v-.3h.07c.09,0,.16-.04.22-.09.05-.06.09-.16.12-.29.02-.13.04-.31.05-.53l.04-1.08h1.46v2.3h-.34v-2.01h-.78l-.04.88c-.01.25-.03.45-.07.62-.04.17-.11.29-.2.38-.09.09-.23.13-.4.13h-.1Z"></path> <path class="cls-1" d="m8.74,20.01h-.37l.83-2.3h.4l.83,2.3h-.37l-.65-1.88h-.02l-.65,1.88Zm.06-.9h1.2v.29h-1.2v-.29Z"></path> <path class="cls-1" d="m11.24,17.71h.34v1.69h.02l1.17-1.69h.32v2.3h-.35v-1.69h-.02l-1.17,1.69h-.32v-2.3Zm1.15-.58h.28c0,.13-.04.23-.13.31-.09.08-.21.12-.36.12s-.27-.04-.36-.12-.13-.18-.13-.31h.28c0,.06.02.11.05.15s.09.06.17.06.14-.02.17-.06c.03-.04.05-.09.05-.15Z"></path> <path class="cls-1" d="m14.08,20.01v-2.3h.35v1h1.15v-1h.35v2.3h-.35v-1h-1.15v1h-.35Z"></path> <path class="cls-1" d="m18.21,17.71h.42l.73,1.79h.03l.73-1.79h.42v2.3h-.33v-1.67h-.02l-.68,1.66h-.27l-.68-1.66h-.02v1.67h-.33v-2.3Z"></path> <path class="cls-1" d="m21.72,20.01h-.37l.83-2.3h.4l.83,2.3h-.37l-.65-1.88h-.02l-.65,1.88Zm.06-.9h1.2v.29h-1.2v-.29Z"></path> <path class="cls-1" d="m25.65,17.71v.3h-1.09v2h-.35v-2.3h1.44Z"></path> <path class="cls-1" d="m26.44,20.01h-.37l.83-2.3h.4l.83,2.3h-.37l-.65-1.88h-.02l-.65,1.88Zm.06-.9h1.2v.29h-1.2v-.29Z"></path> <path class="cls-1" d="m29.7,20.04c-.15,0-.29-.03-.41-.08-.12-.05-.22-.13-.29-.22-.07-.09-.11-.2-.11-.33h.35c0,.07.03.13.07.18s.1.09.16.12c.07.03.14.04.22.04.09,0,.17-.02.24-.05.07-.03.13-.08.16-.13.04-.06.06-.12.06-.2s-.02-.15-.06-.2c-.04-.06-.1-.1-.17-.14-.08-.03-.17-.05-.27-.05h-.19v-.28h.19c.09,0,.16-.02.22-.05.06-.03.12-.07.15-.13s.05-.12.05-.19-.02-.13-.05-.19c-.03-.05-.08-.09-.13-.12-.06-.03-.13-.04-.2-.04s-.15.01-.21.04c-.07.03-.12.07-.16.12s-.06.11-.07.18h-.34c0-.12.04-.23.11-.33.07-.09.16-.17.28-.22s.24-.08.38-.08c.15,0,.28.03.38.09s.19.13.25.23c.06.09.09.2.09.31,0,.13-.04.24-.11.33s-.17.15-.29.18v.02c.15.02.27.08.36.18.08.1.13.22.13.37,0,.13-.03.24-.1.34-.07.1-.17.18-.29.24-.12.06-.26.09-.42.09Z"></path> <path class="cls-1" d="m31.44,17.71h.34v1.69h.02l1.17-1.69h.32v2.3h-.35v-1.69h-.02l-1.17,1.69h-.32v-2.3Z"></path> <path class="cls-1" d="m34.28,20.01v-2.3h.35v1h1.15v-1h.35v2.3h-.35v-1h-1.15v1h-.35Z"></path> <path class="cls-1" d="m40.61,17.71v2.3h-.35v-2h-1.08v2h-.35v-2.3h1.78Z"></path> <path class="cls-1" d="m41.81,20.01h-.37l.83-2.3h.4l.83,2.3h-.37l-.65-1.88h-.02l-.65,1.88Zm.06-.9h1.2v.29h-1.2v-.29Z"></path> <path class="cls-1" d="m44.3,20.01v-2.3h.82c.18,0,.33.03.44.1.12.06.21.15.26.27.06.11.09.24.09.38s-.03.27-.09.38c-.06.11-.15.2-.27.27-.12.07-.27.1-.44.1h-.56v-.29h.53c.11,0,.21-.02.28-.06s.12-.09.15-.16c.03-.07.05-.15.05-.23s-.02-.16-.05-.23c-.03-.07-.08-.12-.16-.16s-.16-.06-.28-.06h-.44v2h-.35Z"></path> <path class="cls-1" d="m47.63,17.98h.41c.18,0,.33.04.47.12.14.08.24.18.32.32.08.14.12.3.12.48s-.04.34-.12.48c-.08.14-.18.24-.32.32s-.29.12-.47.12h-.41c-.18,0-.33-.04-.47-.11-.14-.08-.24-.18-.32-.32-.08-.14-.12-.3-.12-.48s.04-.35.12-.48c.08-.14.18-.25.32-.32s.29-.12.47-.12Zm0,.3c-.12,0-.22.03-.31.08-.08.05-.15.12-.19.21-.04.09-.07.2-.07.33s.02.24.07.33.11.16.19.21c.08.05.19.07.31.07h.42c.12,0,.22-.03.31-.07.08-.05.15-.12.19-.21.04-.09.07-.2.07-.33s-.02-.24-.07-.33c-.04-.09-.11-.16-.19-.21-.08-.05-.19-.08-.31-.08h-.42Zm.38-.61v2.44h-.34v-2.44h.34Z"></path> <path class="cls-1" d="m50.2,17.71v2.3h-.35v-2.3h.35Zm.5,1.03v.29h-.71v-.29h.71Zm1.97.12c0,.25-.05.46-.14.63-.09.18-.21.31-.37.41-.16.09-.33.14-.53.14s-.38-.05-.53-.14c-.16-.09-.28-.23-.37-.41s-.14-.39-.14-.63.04-.46.14-.63c.09-.18.21-.31.37-.41.16-.09.33-.14.53-.14s.38.05.53.14c.16.09.28.23.37.41.09.18.14.39.14.63Zm-.34,0c0-.19-.03-.35-.09-.47-.06-.13-.14-.23-.25-.29-.1-.07-.22-.1-.36-.1s-.25.03-.36.1c-.1.07-.19.16-.25.29s-.09.29-.09.47.03.35.09.47c.06.13.14.23.25.29.1.07.22.1.36.1s.25-.03.36-.1c.1-.07.19-.16.25-.29.06-.13.09-.29.09-.47Z"></path> <path class="cls-1" d="m53.58,17.71h.42l.73,1.79h.03l.73-1.79h.42v2.3h-.33v-1.67h-.02l-.68,1.66h-.27l-.68-1.66h-.02v1.67h-.33v-2.3Z"></path> <path class="cls-1" d="m56.89,20.01v-2.3h1.44v.3h-1.1v.7h1.02v.3h-1.02v.71h1.11v.3h-1.46Z"></path> <path class="cls-1" d="m59.27,20.01v-2.3h.82c.18,0,.33.03.44.1.12.06.21.15.26.27s.09.24.09.38-.03.27-.09.38c-.06.11-.15.2-.27.27-.12.07-.27.1-.44.1h-.56v-.29h.53c.11,0,.2-.02.28-.06s.12-.09.16-.16.05-.15.05-.23-.02-.16-.05-.23c-.03-.07-.08-.12-.16-.16s-.16-.06-.28-.06h-.44v2h-.35Z"></path> <path class="cls-1" d="m61.77,17.71h.34v1.69h.02l1.17-1.69h.32v2.3h-.35v-1.69h-.02l-1.17,1.69h-.32v-2.3Z"></path> <path class="cls-1" d="m64.61,17.71h.34v1.69h.02l1.17-1.69h.32v2.3h-.35v-1.69h-.02l-1.17,1.69h-.32v-2.3Zm1.15-.58h.28c0,.13-.04.23-.13.31-.09.08-.21.12-.36.12s-.27-.04-.36-.12c-.09-.08-.13-.18-.13-.31h.28c0,.06.02.11.05.15s.09.06.17.06.14-.02.17-.06.05-.09.05-.15Z"></path> </g> </g> </g> </svg> 